<?xml version="1.0" encoding="UTF-8"?>
<svg version="1.1" xmlns="http://www.w3.org/2000/svg" width="1000" height="1000">
<path d="M0 0 C330 0 660 0 1000 0 C1000 330 1000 660 1000 1000 C670 1000 340 1000 0 1000 C0 670 0 340 0 0 Z M482.09277344 167.15332031 C479.59150394 170.55565377 477.82668132 174.05738891 476.015625 177.859375 C475.45680885 179.01256729 475.45680885 179.01256729 474.88670349 180.1890564 C473.6684844 182.70652973 472.45924835 185.22820709 471.25 187.75 C470.3988037 189.51315286 469.54698945 191.27600751 468.69458008 193.03857422 C466.95873285 196.6299865 465.22624212 200.22298678 463.49658203 203.81738281 C461.23494707 208.51563501 458.96233327 213.20846108 456.68359375 217.8984375 C456.34759155 218.59007996 456.01158936 219.28172241 455.66540527 219.99432373 C455.00096729 221.36202524 454.3365184 222.72972144 453.67205811 224.09741211 C447.90544104 235.97311845 442.16880538 247.86328085 436.43505859 259.75488281 C431.19329711 270.61757813 425.91142184 281.46062786 420.62936401 292.30377197 C416.28252678 301.22875371 411.95008352 310.15938034 407.6875 319.125 C401.91716425 331.25904606 395.99182423 343.31755616 390.08779907 355.38690186 C384.73814468 366.32452644 379.40525325 377.26802912 374.1796875 388.265625 C369.26768741 398.58082519 364.23856727 408.83918382 359.22790527 419.10668945 C354.65854987 428.47133073 350.09699509 437.8383502 345.625 447.25 C339.87662514 459.34398348 333.97059113 471.36114149 328.08651733 483.38946533 C322.75949127 494.28062923 317.45019222 505.17800702 312.24780273 516.12939453 C307.58863656 525.91155987 302.81889929 535.6398728 298.0625 545.375 C292.14900063 557.47891937 286.25288174 569.58948746 280.44116211 581.74267578 C276.20413012 590.595535 271.91693185 599.42367032 267.625 608.25 C262.42165874 618.95076693 257.22898321 629.65637395 252.0625 640.375 C246.28222043 652.36653382 240.4589008 664.33680593 234.62908936 676.30432129 C230.28234436 685.22911964 225.94996097 694.15954918 221.6875 703.125 C215.49516763 716.14758712 209.13194654 729.08748593 202.78588867 742.03564453 C201.05498501 745.5678179 199.3313927 749.10342675 197.61279297 752.64160156 C195.81711711 756.33767624 193.99391441 760.01872905 192.15673828 763.69433594 C191.24080996 765.55383901 190.32526991 767.41353338 189.41015625 769.2734375 C188.7677726 770.53880844 188.7677726 770.53880844 188.1124115 771.82974243 C184.84638046 778.52772889 182.86646328 784.90868762 185.0625 792.25 C187.23382119 797.22718374 190.65682895 799.70508968 195.375 802.3125 C202.70572251 804.23245113 208.50295801 802.49051153 215.33203125 799.84375 C216.22343307 799.51043671 217.1148349 799.17712341 218.0332489 798.83370972 C220.9643737 797.73455173 223.88822925 796.61725082 226.8125 795.5 C228.89143451 794.71695272 230.97087058 793.93523588 233.05078125 793.15478516 C237.31961571 791.551188 241.58586924 789.94099994 245.85009766 788.32519531 C253.87604906 785.28635942 261.92140026 782.30036275 269.96746826 779.31530762 C273.4201203 778.03336711 276.87128847 776.74745625 280.32250977 775.46166992 C290.33011696 771.73355639 300.34199066 768.01699579 310.35546875 764.3046875 C311.70500186 763.80434172 313.05453494 763.30399585 314.40406799 762.8036499 C319.85571702 760.78249217 325.30740232 758.76143251 330.75930786 756.7409668 C349.16533696 749.9228463 349.16533696 749.9228463 367.546875 743.0390625 C368.29737625 742.75647583 369.0478775 742.47388916 369.82112122 742.18273926 C373.0350878 740.97172882 376.24755181 739.75707753 379.45776367 738.53613281 C385.78232781 736.14492514 392.14704089 733.91945602 398.56816101 731.8036499 C404.00088863 730.01167334 409.38134496 728.09936171 414.75 726.125 C416.14134155 725.61573975 416.14134155 725.61573975 417.56079102 725.09619141 C419.45705713 724.40167485 421.35297747 723.70621339 423.24853516 723.00976562 C425.86599983 722.04917699 428.48541151 721.09411554 431.10546875 720.140625 C438.13859524 717.57417052 445.13624988 714.97054745 452.0625 712.125 C460.30045321 708.76644985 468.72421725 705.95868389 477.16625977 703.15869141 C478.24963623 702.79308105 479.3330127 702.4274707 480.44921875 702.05078125 C481.90847778 701.56605347 481.90847778 701.56605347 483.3972168 701.0715332 C487.1165621 699.63073142 487.1165621 699.63073142 490 697 C490.60792285 693.79479056 490.55992482 690.62502595 490.53125 687.37109375 C490.53699036 685.95293114 490.53699036 685.95293114 490.54284668 684.50611877 C490.54556837 682.50805598 490.53818921 680.50995771 490.52148438 678.51196289 C490.50005467 675.44532328 490.52128952 672.38102025 490.546875 669.31445312 C490.54423224 667.37499481 490.53910832 665.43553795 490.53125 663.49609375 C490.54339539 662.11483559 490.54339539 662.11483559 490.55578613 660.70567322 C490.54317749 659.85461502 490.53056885 659.00355682 490.51757812 658.12670898 C490.51439575 657.37630844 490.51121338 656.6259079 490.50793457 655.85276794 C490.16821013 653.80839595 490.16821013 653.80839595 488.09037781 652.76002502 C485.93527169 651.97646591 484.27320134 651.71944007 481.98828125 651.65625 C481.23417969 651.62813232 480.48007812 651.60001465 479.703125 651.57104492 C478.51976562 651.53587769 478.51976562 651.53587769 477.3125 651.5 C464.72487469 650.9423682 464.72487469 650.9423682 459 649 C457.1226947 646.19473894 456.75428929 643.95399792 456.77967834 640.62216187 C456.7812645 639.75289566 456.78285065 638.88362946 456.78448486 637.98802185 C456.79638855 637.04241898 456.80829224 636.0968161 456.82055664 635.12255859 C456.82508347 634.12056931 456.82961029 633.11858002 456.83427429 632.08622742 C456.84522973 629.91180199 456.86073252 627.73739581 456.88023567 625.56303024 C456.91035256 622.12603373 456.92719225 618.68920655 456.94029236 615.25210571 C456.9800932 605.48044103 457.04530858 595.70898121 457.11645508 585.9375 C457.15905198 579.96126538 457.18721905 573.98509922 457.20675468 568.0087471 C457.21735395 565.72725653 457.23378713 563.44578559 457.25605965 561.16437912 C457.28708404 557.98237731 457.29999566 554.80078159 457.30883789 551.61865234 C457.32276581 550.66900101 457.33669373 549.71934967 457.3510437 548.74092102 C457.34981003 547.87729446 457.34857635 547.01366791 457.3473053 546.12387085 C457.35266831 545.37135229 457.35803133 544.61883373 457.36355686 543.84351158 C457.2435831 543.23515276 457.12360933 542.62679394 457 542 C453.79619983 539.86413322 452.98060033 539.76867825 449.3125 539.875 C448.50425781 539.89304687 447.69601562 539.91109375 446.86328125 539.9296875 C446.24839844 539.95289063 445.63351562 539.97609375 445 540 C445.020625 539.030625 445.04125 538.06125 445.0625 537.0625 C445.35618499 534.12534105 445.35618499 534.12534105 444 533 C442.31391034 532.92794489 440.62499341 532.91613932 438.9375 532.9375 C437.55884766 532.95103516 437.55884766 532.95103516 436.15234375 532.96484375 C435.44207031 532.97644531 434.73179687 532.98804688 434 533 C434.7321875 532.28714844 435.464375 531.57429688 436.21875 530.83984375 C438.82130875 528.18245581 441.16777616 525.45724966 443.5 522.5625 C445.7990843 519.71697841 448.00935585 516.99074861 450.61305237 514.41612244 C453.93059801 510.40704105 453.62947977 506.53785964 453.47241211 501.52563477 C453.45905067 500.12204208 453.45905067 500.12204208 453.44541931 498.69009399 C453.42310203 496.66510106 453.38929922 494.64020895 453.34525871 492.61557198 C453.27662765 489.40793771 453.24040834 486.20138207 453.21278381 482.9931488 C453.13804674 475.02698496 453.01284767 467.06180974 452.87945557 459.09643555 C452.76750384 452.36172425 452.67946219 445.62759909 452.62542915 438.89216423 C452.59034698 435.73666929 452.51985996 432.58321093 452.44847107 429.42835999 C452.42986441 427.4868434 452.4130122 425.54530895 452.39819336 423.60375977 C452.35405304 422.29511711 452.35405304 422.29511711 452.309021 420.96003723 C452.31484477 416.30457944 452.81633566 413.69455293 455.90919495 410.11949158 C456.436802 409.59724975 456.96440905 409.07500792 457.50800419 408.53694057 C459.98315935 405.98722404 461.36222417 402.93222766 462.875 399.75 C463.37471313 398.71746094 463.37471313 398.71746094 463.88452148 397.6640625 C464.94174443 395.450959 465.97443452 393.22793593 467 391 C467.33821777 390.27232422 467.67643555 389.54464844 468.02490234 388.79492188 C477.99251782 367.09085748 483.1064449 344.476088 487 321 C488.4540625 320.7834375 488.4540625 320.7834375 489.9375 320.5625 C492.86486773 320.32437659 492.86486773 320.32437659 494 319 C494.22598472 317.65950396 494.39402959 316.30909707 494.53515625 314.95703125 C494.62216797 314.13009766 494.70917969 313.30316406 494.79882812 312.45117188 C494.88583984 311.58041016 494.97285156 310.70964844 495.0625 309.8125 C495.19881836 308.53536133 495.19881836 308.53536133 495.33789062 307.23242188 C495.79372197 302.80091861 496.10953859 298.4618719 496 294 C496.66 294 497.32 294 498 294 C498.00410889 294.7113208 498.00821777 295.4226416 498.01245117 296.15551758 C498.04532549 299.37535997 498.1159621 302.59329441 498.1875 305.8125 C498.19330078 306.93205078 498.19910156 308.05160156 498.20507812 309.20507812 C498.23408203 310.27822266 498.26308594 311.35136719 498.29296875 312.45703125 C498.3086792 313.44678955 498.32438965 314.43654785 498.34057617 315.45629883 C498.7624047 318.21286836 498.7624047 318.21286836 501.35668945 319.65893555 C502.66512817 320.32276245 502.66512817 320.32276245 504 321 C506.92882981 323.33611016 507.57608137 325.32461303 508.359375 328.953125 C508.58391357 329.9527124 508.80845215 330.9522998 509.03979492 331.98217773 C509.2741626 333.06055908 509.50853027 334.13894043 509.75 335.25 C518.94239796 375.47298762 518.94239796 375.47298762 539 411 C539.99 411.33 540.98 411.66 542 412 C541.99777939 412.62083466 541.99555878 413.24166931 541.99327087 413.88131714 C541.98293123 416.9182718 541.97371511 419.95522818 541.96484375 422.9921875 C541.96142975 424.14438278 541.95801575 425.29657806 541.95449829 426.48368835 C541.93883257 432.88762797 541.93826399 439.29114911 541.96264648 445.69506836 C541.96992012 447.64447075 541.96992012 447.64447075 541.9773407 449.633255 C541.98727238 452.2747666 541.99762065 454.91627667 542.00837708 457.55778503 C542.02658125 464.58544431 541.96424695 471.60105506 541.77314758 478.62608337 C540.1745141 500.23320593 540.1745141 500.23320593 548.28881836 519.30639648 C550.81923731 521.73968525 553.44977445 523.80975812 556.36230469 525.76416016 C558.61689245 527.46552021 559.79568518 529.47645481 561 532 C557.7 532.33 554.4 532.66 551 533 C550.67 534.98 550.34 536.96 550 539 C549.28972656 539.06058594 548.57945312 539.12117188 547.84765625 539.18359375 C546.46900391 539.30927734 546.46900391 539.30927734 545.0625 539.4375 C544.14597656 539.51871094 543.22945312 539.59992188 542.28515625 539.68359375 C540.03840268 539.76044976 540.03840268 539.76044976 539 541 C538.89817065 543.95574088 538.86050687 546.88756992 538.8671875 549.84375 C538.86520859 551.204645 538.86520859 551.204645 538.8631897 552.59303284 C538.86126265 555.56205596 538.86763618 558.53098634 538.875 561.5 C538.87588623 562.51061493 538.87677246 563.52122986 538.87768555 564.56246948 C538.88924687 575.73882389 538.94442857 586.89755753 539.5 598.0625 C539.96854447 607.51245113 540.14105752 616.94905773 540.17724609 626.40939331 C540.18402482 627.99805533 540.19421963 629.58670684 540.20800781 631.17532349 C540.22588243 633.39433406 540.23016651 635.61295704 540.23046875 637.83203125 C540.23457764 639.11827393 540.23868652 640.4045166 540.24291992 641.72973633 C540.01515454 644.79598491 539.72445464 646.49311529 538 649 C535.20879909 650.39560045 532.79794308 650.21808288 529.6796875 650.31640625 C528.42285156 650.35830078 527.16601562 650.40019531 525.87109375 650.44335938 C524.55238281 650.48267578 523.23367188 650.52199219 521.875 650.5625 C520.53514249 650.60569512 519.19529844 650.64930973 517.85546875 650.69335938 C514.57042185 650.79970981 511.28529719 650.90173808 508 651 C507.89870485 657.49603988 507.82857925 663.99187668 507.78027344 670.48852539 C507.76013936 672.69921479 507.73282985 674.90985082 507.69824219 677.12036133 C507.64980371 680.29521846 507.62704928 683.46937248 507.609375 686.64453125 C507.58872986 687.63524124 507.56808472 688.62595123 507.54681396 689.64668274 C507.54636078 691.02777473 507.54636078 691.02777473 507.54589844 692.43676758 C507.53701599 693.2472908 507.52813354 694.05781403 507.51898193 694.89289856 C507.83076555 697.16337902 507.83076555 697.16337902 509.83966064 698.72489929 C512.73312841 700.43271561 515.55452397 701.1020355 518.8125 701.9375 C527.46495723 704.31298927 535.77941467 707.48591807 544.125 710.75 C544.80129456 711.01392548 545.47758911 711.27785095 546.17437744 711.54977417 C552.74645608 714.11745867 559.30643998 716.71390332 565.84765625 719.359375 C577.92827284 724.21925452 590.14952385 728.44677581 602.51300049 732.51525879 C631.89079003 742.18913395 660.82350684 753.11709039 689.79420471 763.93666077 C696.02656677 766.26417241 702.26061372 768.58710488 708.49609375 770.90625 C709.36094894 771.22800201 710.22580414 771.54975403 711.11686707 771.8812561 C715.48929372 773.50770561 719.86226901 775.13265862 724.23608398 776.75537109 C733.23413117 780.09600182 742.22359306 783.45752974 751.1987915 786.85914612 C755.86405078 788.62614364 760.5322484 790.38530359 765.20068359 792.14389038 C767.46383735 792.99884568 769.72558784 793.85752584 771.98583984 794.72012329 C775.14591105 795.92578655 778.310625 797.11843594 781.4765625 798.30859375 C782.40908844 798.66821198 783.34161438 799.0278302 784.30239868 799.39834595 C791.1549409 801.9531167 797.57379458 804.02786163 804.75 801.875 C810.28336193 798.68267581 813.72021384 794.99943727 816 789 C817.99009622 776.5618986 806.38461493 760.50693659 800.96826172 749.7253418 C799.95055151 747.69212603 798.93320196 745.6587297 797.91618347 743.62516785 C795.73379009 739.26330295 793.54888799 734.90270755 791.3619957 730.54309654 C787.89317128 723.6278495 784.43011857 716.7097221 780.96780396 709.79121399 C776.10303464 700.07174991 771.23576402 690.35354283 766.36621094 680.63647461 C765.90375849 679.71365969 765.90375849 679.71365969 765.43196358 678.77220205 C765.12332421 678.15631885 764.81468485 677.54043566 764.49669278 676.90588933 C763.87240764 675.6601401 763.24812349 674.41439037 762.62384033 673.16864014 C762.1598785 672.24280946 762.1598785 672.24280946 761.6865437 671.29827512 C758.26230223 664.46508595 754.83901016 657.6314213 751.41601562 650.79760742 C751.10991414 650.18649531 750.80381266 649.57538319 750.48843537 648.94575252 C745.35091101 638.68884309 740.215079 628.43108692 735.08008206 618.17291194 C731.64895694 611.3189895 728.21558879 604.4661971 724.78031611 597.61435258 C722.62722985 593.31895739 720.4758558 589.02270616 718.32486916 584.72625923 C717.34010963 582.76015926 716.35465599 580.79440673 715.36838722 578.82906342 C709.72853285 567.58952778 704.2019469 556.30384518 698.79483306 544.95038003 C695.58540039 538.21229123 692.32202638 531.50773617 688.96875 524.83984375 C688.45812012 523.82004425 687.94749023 522.80024475 687.42138672 521.74954224 C686.33937545 519.58925289 685.25644392 517.42942424 684.17260742 515.27005005 C682.4444357 511.82679213 680.7189921 508.3821781 678.99414062 504.93725586 C675.33185859 497.62361786 671.66614107 490.31170414 668 483 C663.74228402 474.50846654 659.48602798 466.01620718 655.2331543 457.52224731 C653.55621084 454.17470888 651.87681215 450.82841069 650.19726562 447.48217773 C643.30449134 433.72938061 636.59153046 419.89952774 630 406 C628.9345936 403.7612407 627.86770924 401.52319106 626.80078125 399.28515625 C626.17200073 397.96451172 626.17200073 397.96451172 625.53051758 396.6171875 C614.69295084 373.88631992 603.33802183 351.35963959 591.36572266 329.20288086 C587.78271659 322.50386227 584.41328528 315.74379776 581.16503906 308.87719727 C570.86510119 287.234239 560.11023327 265.80931532 549.42554855 244.35446835 C545.32246144 236.11486129 541.23016672 227.87007354 537.15129542 219.61845106 C534.25515998 213.7618252 531.34677354 207.91138392 528.42935491 202.06533152 C526.6969411 198.59297817 524.969987 195.11816111 523.25643158 191.63645744 C521.6516427 188.37631154 520.03176303 185.1241177 518.40021896 181.8772831 C517.52613151 180.12822218 516.66789698 178.37126643 515.81027222 176.61407471 C512.36129564 169.79675147 509.05174727 164.52587363 502 161 C493.54778165 160.22816569 487.96485687 160.5235487 482.09277344 167.15332031 Z " fill="#000000" transform="translate(0,0)"/>
</svg>
